<?xml version="1.0" encoding="utf-8"?>
<!-- Generator: Adobe Illustrator 21.1.0, SVG Export Plug-In . SVG Version: 6.00 Build 0)  -->
<svg version="1.1" xmlns="http://www.w3.org/2000/svg" xmlns:xlink="http://www.w3.org/1999/xlink" x="0px" y="0px"
	 viewBox="0 0 512 512" style="enable-background:new 0 0 512 512;" xml:space="preserve">
<style type="text/css">
	.st0{fill:#FFFFFF;}
</style>
<g id="Layer_2">
</g>
<g id="Layer_1">
	<g>
		<g>
			<path class="st0" d="M47.4,248V125.1c0-33.4,27.2-60.5,60.5-60.5h296.2c33.4,0,60.5,27.2,60.5,60.5V250c0,7.5,6,13.5,13.5,13.5
				s13.5-6,13.5-13.5V125.1c0-48.3-39.3-87.5-87.5-87.5H107.9c-48.3,0-87.5,39.3-87.5,87.5V248c0,7.5,6,13.5,13.5,13.5
				S47.4,255.4,47.4,248z"/>
			<path class="st0" d="M265.5,470.4l85.8-85.8c5.3-5.3,5.3-13.8,0-19.1c-5.3-5.3-13.8-5.3-19.1,0l-62.8,62.8V154.4
				c0-7.5-6-13.5-13.5-13.5s-13.5,6-13.5,13.5v273.9l-62.8-62.8c-5.3-5.3-13.8-5.3-19.1,0c-2.6,2.6-4,6.1-4,9.5s1.3,6.9,4,9.5
				l85.8,85.8C251.7,475.7,260.3,475.7,265.5,470.4z"/>
		</g>
	</g>
</g>
</svg>
