<?xml version="1.0" encoding="UTF-8"?>
<svg width="19px" height="18px" viewBox="0 0 19 18" version="1.1" xmlns="http://www.w3.org/2000/svg" xmlns:xlink="http://www.w3.org/1999/xlink">
    <!-- Generator: Sketch 52.1 (67048) - http://www.bohemiancoding.com/sketch -->
    <title>controls</title>
    <desc>Created with Sketch.</desc>
    <g id="Page-1" stroke="none" stroke-width="1" fill="none" fill-rule="evenodd">
        <g id="Meny" transform="translate(-234.000000, -21.000000)" fill="#000000" fill-rule="nonzero">
            <g id="Group-2">
                <g id="controls" transform="translate(234.000000, 21.000000)">
                    <path d="M0.351851852,2.33333333 L1.40740741,2.33333333 L1.40740741,3.66666667 C1.40740741,3.851 1.56468519,4 1.75925926,4 L5.98148148,4 C6.17605556,4 6.33333333,3.851 6.33333333,3.66666667 L6.33333333,2.33333333 L18.6481481,2.33333333 C18.8427222,2.33333333 19,2.18433333 19,2 C19,1.81566667 18.8427222,1.66666667 18.6481481,1.66666667 L6.33333333,1.66666667 L6.33333333,0.333333333 C6.33333333,0.149 6.17605556,0 5.98148148,0 L1.75925926,0 C1.56468519,0 1.40740741,0.149 1.40740741,0.333333333 L1.40740741,1.66666667 L0.351851852,1.66666667 C0.157277778,1.66666667 0,1.81566667 0,2 C0,2.18433333 0.157277778,2.33333333 0.351851852,2.33333333 Z M2.11111111,0.666666667 L5.62962963,0.666666667 L5.62962963,3.33333333 L2.11111111,3.33333333 L2.11111111,0.666666667 Z" id="Shape"></path>
                    <path d="M18.6481481,8.66666667 L11.962963,8.66666667 L11.962963,7.33333333 C11.962963,7.149 11.8056852,7 11.6111111,7 L7.38888889,7 C7.19431481,7 7.03703704,7.149 7.03703704,7.33333333 L7.03703704,8.66666667 L0.351851852,8.66666667 C0.157277778,8.66666667 0,8.81566667 0,9 C0,9.18433333 0.157277778,9.33333333 0.351851852,9.33333333 L7.03703704,9.33333333 L7.03703704,10.6666667 C7.03703704,10.851 7.19431481,11 7.38888889,11 L11.6111111,11 C11.8056852,11 11.962963,10.851 11.962963,10.6666667 L11.962963,9.33333333 L18.6481481,9.33333333 C18.8427222,9.33333333 19,9.18433333 19,9 C19,8.81566667 18.8427222,8.66666667 18.6481481,8.66666667 Z M11.2592593,10.3333333 L7.74074074,10.3333333 L7.74074074,7.66666667 L11.2592593,7.66666667 L11.2592593,10.3333333 Z" id="Shape"></path>
                    <path d="M18.6481481,15.6666667 L17.5925926,15.6666667 L17.5925926,14.3333333 C17.5925926,14.149 17.4353148,14 17.2407407,14 L13.0185185,14 C12.8239444,14 12.6666667,14.149 12.6666667,14.3333333 L12.6666667,15.6666667 L0.351851852,15.6666667 C0.157277778,15.6666667 0,15.8156667 0,16 C0,16.1843333 0.157277778,16.3333333 0.351851852,16.3333333 L12.6666667,16.3333333 L12.6666667,17.6666667 C12.6666667,17.851 12.8239444,18 13.0185185,18 L17.2407407,18 C17.4353148,18 17.5925926,17.851 17.5925926,17.6666667 L17.5925926,16.3333333 L18.6481481,16.3333333 C18.8427222,16.3333333 19,16.1843333 19,16 C19,15.8156667 18.8427222,15.6666667 18.6481481,15.6666667 Z M16.8888889,17.3333333 L13.3703704,17.3333333 L13.3703704,14.6666667 L16.8888889,14.6666667 L16.8888889,17.3333333 Z" id="Shape"></path>
                </g>
            </g>
        </g>
    </g>
</svg>