<svg id="Layer_1" data-name="Layer 1" xmlns="http://www.w3.org/2000/svg" viewBox="0 0 120 120"><title>Symboler filter</title><path d="M105,108.17a3,3,0,0,1,0-6,9,9,0,0,0,9-9V26.83a9,9,0,0,0-9-9H15a9,9,0,0,0-9,9V93.17a9,9,0,0,0,9,9H85.73a3,3,0,0,1,0,6H15a15,15,0,0,1-15-15V26.83a15,15,0,0,1,15-15h90a15,15,0,0,1,15,15V93.17A15,15,0,0,1,105,108.17Z"/><path d="M60,71.5a3,3,0,0,1-2.87-2.13l-11.5-38A3,3,0,0,1,48.5,27.5h23a3,3,0,0,1,2.87,3.87l-11.5,38A3,3,0,0,1,60,71.5Zm-7.46-38L60,58.14,67.46,33.5Z"/><path d="M60.5,92.5a8,8,0,1,1,8-8A8,8,0,0,1,60.5,92.5Zm0-10a2,2,0,1,0,2,2A2,2,0,0,0,60.5,82.5Z"/></svg>