<svg id="Layer_1" data-name="Layer 1" xmlns="http://www.w3.org/2000/svg" viewBox="0 0 120 120"><title>Symboler filter</title><path d="M58.82,64.5h.8c7.3-.12,13.21-2.69,17.57-7.6,9.59-10.81,8-29.35,7.82-31.12C84.38,12.5,78.1,6.14,72.92,3.18A27.71,27.71,0,0,0,59.51-.33h-.42A27.75,27.75,0,0,0,45.68,3.08c-5.23,3-11.61,9.32-12.24,22.7-.17,1.77-1.77,20.31,7.82,31.12C45.61,61.81,51.51,64.38,58.82,64.5ZM40.1,26.4c0-.07,0-.15,0-.2C40.95,8.34,53.63,6.42,59.06,6.42h.3c6.73.15,18.17,2.89,18.94,19.79a.49.49,0,0,0,0,.2c0,.17,1.77,17.12-6.16,26C69,56,64.85,57.73,59.34,57.78h-.25c-5.48,0-9.69-1.79-12.81-5.33C38.38,43.57,40.08,26.55,40.1,26.4Z"/><path d="M110.42,95.26v-.07c0-.2,0-.4,0-.62-.15-4.93-.47-16.47-11.29-20.16l-.25-.07A71.9,71.9,0,0,1,78.18,64.9a3.36,3.36,0,1,0-3.86,5.51A77.61,77.61,0,0,0,97.07,80.8c5.81,2.07,6.45,8.27,6.63,14a5,5,0,0,0,0,.62,45.23,45.23,0,0,1-.52,7.7c-4,2.29-19.86,10.22-43.93,10.22s-39.9-7.95-44-10.24a42.82,42.82,0,0,1-.52-7.7c0-.2,0-.4,0-.62.17-5.68.82-11.89,6.63-14A78.34,78.34,0,0,0,44.19,70.39a3.36,3.36,0,1,0-3.86-5.51A71.11,71.11,0,0,1,19.64,74.3l-.25.07C8.58,78.09,8.25,89.62,8.1,94.53a5,5,0,0,1,0,.62v.07c0,1.3,0,7.95,1.27,11.29a3.2,3.2,0,0,0,1.3,1.57c.75.5,18.66,11.91,48.64,11.91s47.89-11.44,48.64-11.91a3.33,3.33,0,0,0,1.3-1.57C110.47,103.2,110.45,96.55,110.42,95.26Z"/></svg>