<svg height="384pt" viewBox="-64 0 384 384.00007" width="384pt" xmlns="http://www.w3.org/2000/svg"><path d="m7.96875 381.839844c4.941406 2.863281 11.015625 2.878906 15.96875.046875l104.0625-59.453125 104.0625 59.460937c2.457031 1.402344 5.203125 2.105469 7.9375 2.105469 2.777344 0 5.542969-.71875 8.03125-2.160156 4.9375-2.863282 7.96875-8.136719 7.96875-13.839844v-352c0-8.832031-7.167969-16-16-16h-128c-8.832031 0-16 7.167969-16 16s7.167969 16 16 16h112v308.433594l-88.0625-50.320313c-4.914062-2.816406-10.960938-2.816406-15.875 0l-88.0625 50.320313v-308.433594h16c8.832031 0 16-7.167969 16-16s-7.167969-16-16-16h-32c-8.832031 0-16 7.167969-16 16v352c0 5.703125 3.03125 10.976562 7.96875 13.839844zm0 0"/></svg>