<?xml version="1.0" encoding="UTF-8"?>
<svg width="40px" height="26px" viewBox="0 0 40 26" version="1.1" xmlns="http://www.w3.org/2000/svg" xmlns:xlink="http://www.w3.org/1999/xlink">
    <!-- Generator: Sketch 52.1 (67048) - http://www.bohemiancoding.com/sketch -->
    <title>001-crown</title>
    <desc>Created with Sketch.</desc>
    <g id="Page-1" stroke="none" stroke-width="1" fill="none" fill-rule="evenodd" opacity="0.102329799">
        <g id="Varför-premium" transform="translate(-15.000000, -1810.000000)" fill="#FFFFFF" fill-rule="nonzero">
            <g id="001-crown" transform="translate(15.000000, 1810.000000)">
                <path d="M38.4261682,8.17411111 C38.4322991,8.28042222 38.4242243,8.38861111 38.3965607,8.49607778 L35.929271,18.0294111 C35.8048598,18.5096889 35.3592523,18.8474 34.8469533,18.85 L20.043215,18.9222222 C20.041271,18.9222222 20.0394766,18.9222222 20.0375327,18.9222222 L5.23364486,18.9222222 C4.71865421,18.9222222 4.26990654,18.5833556 4.14549533,18.1006222 L1.67820561,8.53117778 C1.64979439,8.42082222 1.64157009,8.3096 1.64874766,8.20054444 C0.694280374,7.91006667 0,7.0473 0,6.03055556 C0,4.77605556 1.0564486,3.75555556 2.35514019,3.75555556 C3.65383178,3.75555556 4.71028037,4.77605556 4.71028037,6.03055556 C4.71028037,6.73703333 4.37517757,7.36912222 3.85046729,7.78671111 L6.93951402,10.7931778 C7.7202243,11.5531 8.80358879,11.9887444 9.91192523,11.9887444 C11.2224299,11.9887444 12.4719252,11.3875667 13.2587664,10.3803556 L18.3354019,3.88266667 C17.9089346,3.471 17.6448598,2.90217778 17.6448598,2.275 C17.6448598,1.0205 18.7013084,0 20,0 C21.2986916,0 22.3551402,1.0205 22.3551402,2.275 C22.3551402,2.8834 22.1051215,3.43561111 21.7009346,3.84424444 C21.7022804,3.84597778 21.7039252,3.84742222 21.705271,3.8493 L26.7451215,10.3649 C27.5316636,11.3817889 28.7856449,11.9888889 30.0998879,11.9888889 C31.2183925,11.9888889 32.2702056,11.5681222 33.0610841,10.8040111 L36.1695701,7.8013 C35.6337944,7.38385556 35.2897196,6.7457 35.2897196,6.03055556 C35.2897196,4.77605556 36.3461682,3.75555556 37.6448598,3.75555556 C38.9435514,3.75555556 40,4.77605556 40,6.03055556 C40,7.02014444 39.3413084,7.86182222 38.4261682,8.17411111 Z M35.6885234,22.3166667 C35.6885234,21.7183778 35.1863925,21.2333333 34.567028,21.2333333 L5.55768224,21.2333333 C4.93831776,21.2333333 4.43618692,21.7183778 4.43618692,22.3166667 L4.43618692,24.9166667 C4.43618692,25.5149556 4.93831776,26 5.55768224,26 L34.567028,26 C35.1863925,26 35.6885234,25.5149556 35.6885234,24.9166667 L35.6885234,22.3166667 Z" id="Shape"></path>
            </g>
        </g>
    </g>
</svg>