<svg id="Layer_1" data-name="Layer 1" xmlns="http://www.w3.org/2000/svg" viewBox="0 0 120 120"><title>Symboler filter</title><path d="M110.76,55a3,3,0,0,0-3,3v46.54a9,9,0,0,1-9,9H14.94a9,9,0,0,1-9-9V26.68a9,9,0,0,1,9-9H61.48a3,3,0,0,0,0-6H14.94A15,15,0,0,0,0,26.68v77.88A15,15,0,0,0,14.94,119.5H98.8a15,15,0,0,0,14.94-14.94V58A3,3,0,0,0,110.76,55Z"/><path d="M112.56,4a13.45,13.45,0,0,0-19,0L40.22,57.36a3,3,0,0,0-.77,1.32L32.44,84a3,3,0,0,0,3.68,3.68l25.31-7a3,3,0,0,0,1.32-.77l53.32-53.32a13.46,13.46,0,0,0,0-19ZM46.73,59.3,90.37,15.67l14.07,14.07L60.81,73.38Zm-2.81,5.64L55.17,76.19,39.61,80.5Zm67.92-42.6-3.17,3.17L94.6,11.44l3.17-3.17a7.47,7.47,0,0,1,10.57,0l3.51,3.51A7.48,7.48,0,0,1,111.84,22.34Z"/></svg>