<svg id="Layer_1" data-name="Layer 1" xmlns="http://www.w3.org/2000/svg" viewBox="0 0 490 490"><defs><style>.cls-1{fill:#fff;}</style></defs><title>light-bulb sktiv</title><path class="cls-1" d="M256,92.3c-74.2,0-127.8,55.3-136.3,114.7-5.3,39.6,7.5,78.2,34.1,107.4A135.89,135.89,0,0,1,190,407.2l-.1,54.2c0,21.9,18.1,39.6,40.5,39.6h52.2c22.4,0,40.5-17.7,40.5-39.6l.1-54.2c0-35.4,11.7-67.8,34.1-90.7a128.83,128.83,0,0,0,37.3-90.7c-.1-74.1-63-133.5-138.6-133.5Zm46.8,369.1a18.93,18.93,0,0,1-19.2,18.8H231.4a18.87,18.87,0,0,1-19.2-18.8v-24h90.5v24Z" transform="translate(-11 -11)"/><rect class="cls-1" x="234.3" width="21.3" height="50"/><polygon class="cls-1" points="374.1 96.4 389 111.3 425.5 76.2 410.5 61.3 374.1 96.4"/><rect class="cls-1" x="437.8" y="225.2" width="52.2" height="20.9"/><rect class="cls-1" y="225.2" width="52.2" height="20.9"/><polygon class="cls-1" points="79.1 61.2 64.1 76.1 100.6 111.2 115.5 96.3 79.1 61.2"/></svg>