<?xml version="1.0" encoding="UTF-8"?>
<svg width="20px" height="20px" viewBox="0 0 20 20" version="1.1" xmlns="http://www.w3.org/2000/svg" xmlns:xlink="http://www.w3.org/1999/xlink">
    <!-- Generator: Sketch 52.1 (67048) - http://www.bohemiancoding.com/sketch -->
    <title>light-bulb</title>
    <desc>Created with Sketch.</desc>
    <g id="Page-1" stroke="none" stroke-width="1" fill="none" fill-rule="evenodd">
        <g id="Artikelsidan-med-tips" transform="translate(-305.000000, -213.000000)" fill-rule="nonzero">
            <g id="Group" transform="translate(34.000000, 213.000000)">
                <g id="light-bulb" transform="translate(271.000000, 0.000000)">
                    <path d="M9.97702527,3.47826087 C6.93881438,3.47826087 4.744096,5.713769 4.39605298,8.11502005 C4.17903791,9.71585409 4.70314976,11.276263 5.79231971,12.456676 C6.75046168,13.4673035 7.27457354,14.8175019 7.27457354,16.2081254 L7.27047891,18.399166 C7.27047891,19.2844757 8.01160583,20 8.92880157,20 L11.0661952,20 C11.983391,20 12.7245179,19.2844757 12.7245179,18.399166 L12.7286125,16.2081254 C12.7286125,14.7770768 13.2076835,13.4673035 14.1248792,12.5415687 C15.1280621,11.5309412 15.6521739,10.2252104 15.6521739,8.87501197 C15.6480793,5.87951192 13.0725609,3.47826087 9.97702527,3.47826087 Z M11.8933092,18.399166 C11.8933092,18.819587 11.5452662,19.1591579 11.1071415,19.1591579 L8.96974781,19.1591579 C8.53162305,19.1591579 8.18358003,18.8236295 8.18358003,18.399166 L8.18358003,17.4289635 L11.8892146,17.4289635 L11.8892146,18.399166 L11.8933092,18.399166 Z M13.5147803,11.9513622 C12.4256103,13.0468825 11.8564576,14.5628238 11.8564576,16.2081254 L11.8564576,16.5881214 L8.15082304,16.5881214 L8.15082304,16.2081254 C8.15082304,14.6477165 7.49568322,13.0913501 6.40651328,11.9109371 C5.4483713,10.9003096 5.05528741,9.59457878 5.22726162,8.24438038 C5.5343584,6.22312529 7.43835849,4.3231455 9.98111989,4.3231455 C12.6426254,4.3231455 14.780019,6.3888682 14.780019,8.87501197 C14.780019,10.0109573 14.3418943,11.1064776 13.5147803,11.9513622 Z" id="Shape" fill="#FFFFFF"></path>
                    <polygon id="Rectangle-path" fill="#1A1A1A" points="9.56521739 0 10.4347826 0 10.4347826 1.73913043 9.56521739 1.73913043"></polygon>
                    <polygon id="Shape" fill="#1A1A1A" points="15.6521739 3.82956522 16.1563187 4.34782609 17.3913043 3.12695652 16.883776 2.60869565"></polygon>
                    <polygon id="Rectangle-path" fill="#1A1A1A" points="18.2608696 9.56521739 20 9.56521739 20 10.4347826 18.2608696 10.4347826"></polygon>
                    <polygon id="Rectangle-path" fill="#1A1A1A" points="0 9.56521739 1.73913043 9.56521739 1.73913043 10.4347826 0 10.4347826"></polygon>
                    <polygon id="Shape" fill="#1A1A1A" points="3.11622399 2.60869565 2.60869565 3.12695652 3.84368127 4.34782609 4.34782609 3.82956522"></polygon>
                </g>
            </g>
        </g>
    </g>
</svg>